# xmcd
#
# Track frame offsets:
#	150
#	13481
#	30177
#	46764
#	64348
#	81293
#	102499
#	120730
#	131502
#	149653
#	164859
#	177179
#	194952
#	206754
#	222033
#
# Disc length: 3108 seconds
#
# Revision: 1
# Processed by: cddbd v1.5.2PL0 Copyright (c) Steve Scherf et al.
# Submitted via: audiograbber 1.83.01
#
DISCID=eb0c220f
DTITLE=The Sunny Cowgirls - Dust Will Settle
DYEAR=2008
DGENRE=Country
TTITLE0=Dancing On The Darling
TTITLE1=Acting Stupid
TTITLE2=Grog Monster
TTITLE3=Pink Galahs
TTITLE4=Naked
TTITLE5=Kelpie
TTITLE6=Dust Will Settle
TTITLE7=Old Silo
TTITLE8=Take The Time
TTITLE9=The Hard Way
TTITLE10=Rabbit
TTITLE11=One Of You
TTITLE12=Live It Loud
TTITLE13=Ten Bucks In The Glovebox
TTITLE14=Someday (Collaboration with Adam Brand)
EXTD=
EXTT0=
EXTT1=
EXTT2=
EXTT3=
EXTT4=
EXTT5=
EXTT6=
EXTT7=
EXTT8=
EXTT9=
EXTT10=
EXTT11=
EXTT12=
EXTT13=
EXTT14=
PLAYORDER=
